<svg width="45" height="45" fill="none" xmlns="http://www.w3.org/2000/svg">
<path fill-rule="evenodd" clip-rule="evenodd" d="M22.4587 1.61252C10.923 1.61252 1.57151 10.964 1.57151 22.4997C1.57151 34.0353 10.923 43.3868 22.4587 43.3868C33.9943 43.3868 43.3458 34.0353 43.3458 22.4997C43.3458 10.964 33.9943 1.61252 22.4587 1.61252ZM1.12842 22.4997C1.12842 10.7193 10.6783 1.16943 22.4587 1.16943C34.239 1.16943 43.7889 10.7193 43.7889 22.4997C43.7889 34.2801 34.239 43.8299 22.4587 43.8299C10.6783 43.8299 1.12842 34.2801 1.12842 22.4997Z" fill="black"/>
<path fill-rule="evenodd" clip-rule="evenodd" d="M22.5 0.443088C10.3183 0.443088 0.443088 10.3183 0.443088 22.5C0.443088 34.6817 10.3183 44.5569 22.5 44.5569C34.6817 44.5569 44.5569 34.6817 44.5569 22.5C44.5569 10.3183 34.6817 0.443088 22.5 0.443088ZM0 22.5C0 10.0736 10.0736 0 22.5 0C34.9264 0 45 10.0736 45 22.5C45 34.9264 34.9264 45 22.5 45C10.0736 45 0 34.9264 0 22.5Z" fill="black"/>
<path d="M20.4204 30.5612L13.8834 10.8527L14.0192 37.7865H13.1626L13.1803 7.44092L17.2656 7.5384L22.3906 22.9785L28.2453 7.5384L31.3706 7.44978L31.403 37.8102H27.2676L27.2823 11.73L20.4204 30.5612Z" fill="black"/>
</svg>
