<svg width="165" height="45" viewBox="0 0 165 45" fill="none" xmlns="http://www.w3.org/2000/svg">
<path d="M10.3751 33.8031L2.41295 5.63385L2.57719 44.1071H3.98896V44.8743H0V44.1071H1.53494L1.55389 0.741296H0.0221082V0H6.52508L12.7722 22.9802L19.8974 0H25.235V0.785774H23.7032L23.7442 44.1516H25.216V44.9225H16.9349V44.1553H18.713L18.732 6.89776L10.3751 33.8031Z" fill="black"/>
<path d="M42.1541 33.8881H37.2461C36.8458 33.8912 36.446 33.9234 36.0491 33.9844C35.6282 34.0427 35.216 34.1674 34.8236 34.3551C34.4546 34.5302 34.1202 34.7926 33.8414 35.126C33.5667 35.4653 33.4033 35.9079 33.3803 36.3751L32.3949 44.2625H33.4371V44.9037H30.8284C30.5631 44.9037 30.4304 44.8815 30.4304 44.8407V44.2625H31.4127C31.4127 44.223 31.4948 43.5706 31.659 42.3055C31.8232 41.0403 32.0391 39.3947 32.3065 37.3685C32.5718 35.3423 32.8686 33.0232 33.1971 30.4114C33.5256 27.7996 33.854 25.1494 34.1825 22.461C34.9616 16.0908 35.8448 8.86563 36.8323 0.785507H35.2974V0.0219727H41.9299L49.5856 44.281H50.8142V44.9223H42.0278V44.281H43.5595L42.1541 33.8881ZM42.0309 33.2469L37.6282 3.16507L33.5035 35.2298C33.5035 34.5874 33.9246 34.0932 34.7668 33.7472C35.6466 33.3986 36.5701 33.2257 37.4987 33.2357L42.0309 33.2469Z" fill="black"/>
<path d="M64.8684 0.682221C64.5192 0.655666 64.1694 0.722615 63.8455 0.878006C63.5216 1.0334 63.232 1.27317 62.9987 1.57919C62.5459 2.233 62.23 3.0023 62.0765 3.82531C61.8855 4.78294 61.7724 5.75964 61.7385 6.74231C61.6985 7.79001 61.6775 8.76235 61.6753 9.65931V15.8158C61.6753 17.9087 61.6638 20.57 61.6406 23.7995C61.6174 27.0291 61.6259 30.8666 61.6659 35.3119C61.6659 36.7253 61.6859 37.9756 61.7259 39.0628C61.7463 39.9941 61.8586 40.9195 62.0607 41.8204C62.2077 42.4958 62.5286 43.1016 62.9797 43.5551C63.5273 44.0009 64.1877 44.2152 64.8526 44.1629C65.6714 44.1537 66.4666 43.8396 67.1234 43.266C67.7362 42.7125 68.0425 42.1355 68.0425 41.535V35.234V27.2799C68.0425 25.8715 68.0615 24.715 68.1057 23.8181C68.1593 23.1094 68.1177 22.3952 67.9825 21.7017C67.9376 21.4705 67.8478 21.2545 67.7202 21.0707C67.5925 20.8868 67.4305 20.74 67.2466 20.6416C66.6956 20.4266 66.1142 20.3397 65.5348 20.3859V19.7298C67.5014 19.7298 68.9921 19.9337 70.007 20.3414C71.0219 20.7491 71.7367 21.3594 72.1515 22.1724C72.5922 23.0905 72.8107 24.1325 72.7832 25.1858V36.7314C72.7832 38.6119 72.7621 40.0648 72.72 41.0903C72.6702 41.8384 72.6797 42.5903 72.7484 43.3364C72.8074 43.8059 72.9305 44.0727 73.1179 44.137C73.4502 44.2172 73.7896 44.2495 74.1286 44.2334V44.9413H69.2837C68.9869 44.9673 68.6911 44.876 68.4436 44.6818C68.2736 44.5379 68.1439 44.3379 68.0709 44.1073C68.012 43.9229 67.9904 43.725 68.0078 43.5291C68.0288 43.3586 68.0194 43.2511 67.9794 43.2067L67.6098 43.5773C67.2828 43.9177 66.9344 44.2286 66.5676 44.5076C66.0381 44.828 65.4438 44.9716 64.8495 44.9228C62.885 44.9228 61.3616 44.7189 60.2794 44.3112C59.1971 43.9035 58.4097 43.2931 57.917 42.4802C57.4075 41.6013 57.1116 40.5763 57.061 39.515C56.9789 38.3363 56.9379 36.939 56.9379 35.3119C56.9 30.1821 56.8926 25.9715 56.9158 22.6802C56.9389 19.3888 56.9495 16.7807 56.9473 14.8558V9.66673C56.9473 8.64127 56.9884 7.56268 57.0705 6.43097C57.1435 5.32877 57.4391 4.26281 57.9327 3.32123C58.5125 2.29067 59.3326 1.47752 60.2952 0.978739C61.3816 0.35605 62.9071 0.0434706 64.8716 0.0409996C66.3025 -0.00824443 67.731 0.209441 69.1037 0.685927C69.9782 0.987824 70.785 1.51311 71.4661 2.22412C71.9303 2.71319 72.2239 3.3865 72.2905 4.11442C72.3449 4.71004 72.2258 5.30972 71.9525 5.81569C71.675 6.29655 71.2626 6.64804 70.7871 6.80903C70.5154 6.90061 70.2301 6.92253 69.9505 6.87328C69.671 6.82404 69.4037 6.70479 69.1669 6.52363C68.472 6.09368 68.0836 5.65508 68.0015 5.20783C67.9187 4.78194 67.9406 4.33725 68.0646 3.92539C68.1921 3.51486 68.3495 3.11803 68.5352 2.73932C68.6199 2.58996 68.6774 2.42165 68.7041 2.24496C68.7307 2.06827 68.7259 1.88703 68.69 1.71262C68.6079 1.4124 68.292 1.17889 67.7425 1.00468C66.7961 0.78414 65.8332 0.676106 64.8684 0.682221Z" fill="black"/>
<path d="M95.77 44.952C93.5654 39.2688 91.5652 34.0945 89.7691 29.4293C88.9922 27.4525 88.2363 25.4856 87.5015 23.5286C86.7666 21.5716 86.0929 19.7752 85.4801 18.1394C84.8674 16.5159 84.3568 15.1161 83.9484 13.9399C83.6667 13.1755 83.4211 12.3935 83.2125 11.5974V44.1737H84.4411V44.9409H80.4932V44.17H82.0249L82.0471 0.804173H80.5121V0.0517578H84.4379L97.3081 34.1143L97.3238 0.830118H95.7921V0.0628773H99.721V0.833825H98.4324V22.639V30.6858C98.4324 33.3125 98.4419 35.6747 98.4608 37.7726C98.4798 39.8705 98.4893 41.5693 98.4893 42.869V44.9558L95.77 44.952Z" fill="black"/>
<path d="M120.212 0.0782137V2.89884H119.416V0.849161H111.624L111.675 21.8204C111.672 21.6179 111.717 21.4183 111.803 21.2433C111.89 21.0682 112.016 20.9243 112.168 20.8271C112.494 20.5923 113.087 20.4688 113.946 20.4564H116.892V19.1221H117.688V22.5209H116.889V21.3052H113.699C112.962 21.3052 112.441 21.519 112.136 21.9464C111.795 22.5044 111.632 23.1853 111.675 23.8701V44.2001H119.384V42.1468H120.18V44.9711H105.087V44.2001H106.622L106.641 0.834336H105.109V0.0708008L120.212 0.0782137Z" fill="black"/>
<path d="M144.446 0.0921741V3.23527H143.647V0.863122H137.573L137.614 44.2289H138.843V44.9999H131.048V44.2289H132.583L132.605 0.863122H126.838V3.22415H126.042V0.0810547L144.446 0.0921741Z" fill="black"/>
<path d="M165 0.107799V2.92843H164.201V0.878747H156.409L156.46 21.85C156.458 21.6443 156.504 21.4419 156.594 21.2652C156.683 21.0885 156.813 20.9445 156.968 20.8493C157.295 20.6145 157.887 20.491 158.747 20.4786H161.693V19.1517H162.489V22.5505H161.674V21.3311H158.484C157.75 21.3311 157.228 21.5448 156.921 21.9723C156.58 22.5302 156.417 23.2111 156.46 23.896V44.2223H164.188V42.1689H164.984V44.9933H149.891V44.2186H151.426L151.445 0.852801H149.913V0.0966797L165 0.107799Z" fill="black"/>
</svg>
