<svg width="25" height="26" viewBox="0 0 28 26" fill="none" xmlns="http://www.w3.org/2000/svg">
<path d="M23.1492 0.774272C22.8405 0.796734 22.5374 0.869167 22.2519 0.988744H22.248C21.9739 1.09742 20.6707 1.64563 18.6895 2.47659L11.5898 5.4667C6.49537 7.61142 1.48749 9.72344 1.48749 9.72344L1.54712 9.70036C1.54712 9.70036 1.20184 9.81385 0.841184 10.061C0.618371 10.2028 0.42664 10.3883 0.277593 10.6063C0.100629 10.866 -0.0417111 11.2632 0.0111857 11.6739C0.097744 12.3683 0.547847 12.7847 0.870998 13.0146C1.198 13.2473 1.50961 13.356 1.50961 13.356H1.5173L6.21357 14.9381C6.4242 15.6142 7.64467 19.6267 7.93801 20.5509C8.11112 21.103 8.27943 21.4483 8.49006 21.7118C8.592 21.8464 8.71126 21.9589 8.85456 22.0494C8.92906 22.0927 9.00849 22.1269 9.09116 22.1513L9.04307 22.1398C9.05749 22.1436 9.06904 22.1551 9.07961 22.159C9.11809 22.1696 9.14405 22.1734 9.1931 22.1811C9.93654 22.4062 10.5338 21.9445 10.5338 21.9445L10.5675 21.9176L13.3402 19.393L17.9874 22.9582L18.0932 23.0034C19.0617 23.4285 20.0427 23.1919 20.5611 22.7745C21.0833 22.3542 21.2863 21.8166 21.2863 21.8166L21.3199 21.73L24.9111 3.33255C25.0131 2.8786 25.0391 2.4535 24.9265 2.04091C24.8105 1.62334 24.5426 1.2642 24.1754 1.03395C23.8671 0.846514 23.5096 0.756045 23.1492 0.774272ZM23.0521 2.74588C23.0482 2.80647 23.0597 2.79974 23.0328 2.91611V2.92669L19.4753 21.1328C19.4599 21.1588 19.4339 21.2155 19.3627 21.2723C19.2877 21.3319 19.2281 21.3694 18.9155 21.2453L13.2315 16.8876L9.79805 20.0172L10.5194 15.4103L19.8061 6.75449C20.1889 6.39864 20.061 6.32362 20.061 6.32362C20.0879 5.88698 19.483 6.19571 19.483 6.19571L7.77258 13.4503L7.76874 13.431L2.15591 11.5412V11.5373L2.14148 11.5344C2.15132 11.5312 2.16096 11.5273 2.17034 11.5229L2.20111 11.5075L2.23093 11.4969C2.23093 11.4969 7.24265 9.3849 12.3371 7.24018C14.8877 6.16589 17.4575 5.08392 19.4339 4.24911C20.6061 3.75573 21.7794 3.26523 22.954 2.77762C23.0328 2.74684 22.9953 2.74588 23.0521 2.74588Z" fill="white"/>
</svg>
