<svg width="24" height="24" viewBox="-6 -9 24 24" fill="none" xmlns="http://www.w3.org/2000/svg">
<path d="M5.28973 0.295309L0.293849 5.28704C0.200688 5.38012 0.126788 5.49063 0.0763692 5.61225C0.0259505 5.73387 -4.96463e-08 5.86422 -4.38921e-08 5.99587C-3.2271e-08 6.26173 0.105701 6.5167 0.29385 6.70469C0.387011 6.79778 0.49761 6.87161 0.619332 6.92199C0.741054 6.97237 0.871514 6.9983 1.00326 6.9983C1.26935 6.9983 1.52453 6.89268 1.71268 6.70469L5.99915 2.4118L10.2856 6.70469C10.3785 6.79826 10.489 6.87253 10.6108 6.92322C10.7325 6.9739 10.8631 7 10.995 7C11.1269 7 11.2575 6.9739 11.3793 6.92322C11.501 6.87253 11.6116 6.79826 11.7044 6.70469C11.7981 6.61188 11.8724 6.50146 11.9232 6.37981C11.9739 6.25815 12 6.12766 12 5.99586C12 5.86407 11.9739 5.73358 11.9232 5.61192C11.8724 5.49027 11.7981 5.37985 11.7044 5.28704L6.70856 0.295309C6.61568 0.201736 6.50517 0.127463 6.38341 0.0767781C6.26165 0.0260932 6.13105 -7.44834e-07 5.99915 -7.39068e-07C5.86724 -7.33303e-07 5.73665 0.0260932 5.61489 0.0767782C5.49313 0.127463 5.38262 0.201736 5.28973 0.295309Z" fill="black"/>
</svg>
